<svg xmlns="http://www.w3.org/2000/svg" viewBox="0 18.25 144.75 34.25" data-asc="1.05" width="144.75" height="34.25"><defs/><g fill="#000000"><g transform="translate(0, 0)"><path d="M26.80 43.95Q26.80 47.95 24.33 50Q21.85 52.05 15.60 52.05L0 52.05L0 20.40L1.95 20.40L1.95 20.40L15.10 20.40Q19.25 20.40 21.58 21.27Q23.90 22.15 24.85 23.85Q25.80 25.55 25.80 28.10Q25.80 31.60 24.13 33.52Q22.45 35.45 17.85 35.85L17.85 36Q21.25 36.25 23.20 37.13Q25.15 38 25.98 39.65Q26.80 41.30 26.80 43.95M12.90 26.70L8 26.70L8 32.90L12.90 32.90Q15.35 32.90 16.45 32.27Q17.55 31.65 17.55 29.80Q17.55 28 16.45 27.35Q15.35 26.70 12.90 26.70M13.90 39.45L8 39.45L8 45.80L13.90 45.80Q16.35 45.80 17.45 45.13Q18.55 44.45 18.55 42.60Q18.55 40.70 17.45 40.08Q16.35 39.45 13.90 39.45ZM38.85 18.65Q39 20.45 39 21.65Q39 22.35 38.98 23.07Q38.95 23.80 38.85 24.70Q37.80 24.90 36.80 25Q35.80 25.10 34.80 25.10Q33.85 25.10 32.88 25Q31.90 24.90 30.90 24.70Q30.80 23.85 30.75 23.13Q30.70 22.40 30.70 21.70Q30.70 21.05 30.75 20.30Q30.80 19.55 30.90 18.65Q31.90 18.40 32.92 18.32Q33.95 18.25 34.95 18.25Q35.90 18.25 36.88 18.32Q37.85 18.40 38.85 18.65M38.85 52.05L30.85 52.05L30.85 27.70L38.85 27.70L38.85 52.05ZM44.90 44.75L44.90 34.25L41.90 34.25L41.90 27.75L45.65 27.75L47.15 21.80L52.90 21.80L52.90 27.75L58.35 27.75L58.35 34.25L52.90 34.25L52.90 43Q52.90 44.40 53.25 44.92Q53.60 45.45 54.85 45.45Q55.65 45.45 56.55 45.38Q57.45 45.30 58.35 45.20L58.50 45.30L58.50 51.80Q56.10 52.50 52.15 52.50Q48.20 52.50 46.55 50.70Q44.90 48.90 44.90 44.75ZM70.25 52.05L70.25 42.25L60.00 20.55L60.00 20.40L68.75 20.40Q70.30 24.45 71.23 26.88Q72.15 29.30 72.68 30.67Q73.20 32.05 73.50 32.90Q73.80 33.75 74.15 34.70L74.35 34.70Q74.70 33.75 75 32.90Q75.30 32.05 75.83 30.67Q76.35 29.30 77.28 26.88Q78.20 24.45 79.75 20.40L88.50 20.40L88.50 20.55L78.25 42.25L78.25 52.05L70.25 52.05ZM112.95 51.25Q111.55 51.75 109.08 52.13Q106.60 52.50 103.20 52.50Q98.90 52.50 95.88 51.38Q92.85 50.25 91.30 47.52Q89.75 44.80 89.75 39.95Q89.75 33.35 92.78 30.40Q95.80 27.45 102.15 27.45Q106.70 27.45 109.33 28.75Q111.95 30.05 113.08 32.42Q114.20 34.80 114.20 38.05Q114.20 39 114.13 40.10Q114.05 41.20 113.85 42.25L113.65 42.45L97.20 42.45Q97.55 44.65 99.28 45.35Q101 46.05 104.90 46.05Q107.50 46.05 109.22 45.92Q110.95 45.80 112.75 45.55L112.95 45.70L112.95 51.25M107.25 37.20Q107.25 36 106.88 35.13Q106.50 34.25 105.40 33.77Q104.30 33.30 102.15 33.30Q99 33.30 98.03 34.38Q97.05 35.45 97.05 37.20L107.25 37.20ZM118.95 44.75L118.95 34.25L115.95 34.25L115.95 27.75L119.70 27.75L121.20 21.80L126.95 21.80L126.95 27.75L132.40 27.75L132.40 34.25L126.95 34.25L126.95 43Q126.95 44.40 127.30 44.92Q127.65 45.45 128.90 45.45Q129.70 45.45 130.60 45.38Q131.50 45.30 132.40 45.20L132.55 45.30L132.55 51.80Q130.15 52.50 126.20 52.50Q122.25 52.50 120.60 50.70Q118.95 48.90 118.95 44.75ZM144.60 18.65Q144.75 20.45 144.75 21.65Q144.75 22.35 144.73 23.07Q144.70 23.80 144.60 24.70Q143.55 24.90 142.55 25Q141.55 25.10 140.55 25.10Q139.60 25.10 138.63 25Q137.65 24.90 136.65 24.70Q136.55 23.85 136.50 23.13Q136.45 22.40 136.45 21.70Q136.45 21.05 136.50 20.30Q136.55 19.55 136.65 18.65Q137.65 18.40 138.68 18.32Q139.70 18.25 140.70 18.25Q141.65 18.25 142.63 18.32Q143.60 18.40 144.60 18.65M144.60 52.05L136.60 52.05L136.60 27.70L144.60 27.70L144.60 52.05Z"/></g></g></svg>